<?xml version="1.0" encoding="UTF-8"?>
<svg version="1.1" xmlns="http://www.w3.org/2000/svg" width="1573" height="1573">
<path d="M0 0 C12.02671924 -0.31943477 23.5257981 -0.31705094 35.27001953 2.56445312 C37.71464115 3.15990159 40.16902204 3.70334256 42.625 4.25 C44.43940609 4.66926967 46.2532181 5.09111911 48.06640625 5.515625 C49.34209473 5.80505981 49.34209473 5.80505981 50.64355469 6.1003418 C55.51884296 7.29960796 58.56450377 8.67460969 62.37890625 12.078125 C64.37693676 13.02937244 64.37693676 13.02937244 66.50390625 13.703125 C80.92113897 19.29348054 93.89536368 27.47790504 106.75390625 35.953125 C107.38317017 36.36288574 108.01243408 36.77264648 108.6607666 37.19482422 C125.01811979 47.88562579 139.58255755 61.25535407 150.62890625 77.453125 C151.33660156 78.48687256 151.33660156 78.48687256 152.05859375 79.54150391 C156.27101282 85.77425098 160.08617721 92.20452694 163.8359375 98.72265625 C165.56565805 101.71871895 167.35607781 104.66467014 169.203125 107.58984375 C174.83924393 116.52592613 179.63358328 125.38140356 183.60253906 135.17431641 C184.88005835 138.30705081 186.22767666 141.40857348 187.56640625 144.515625 C188.04980469 145.65257812 188.53320312 146.78953125 189.03125 147.9609375 C190.18483938 150.62923989 191.39505916 153.25902494 192.62890625 155.890625 C194.95812085 161.0806177 195.92941683 166.43737463 196.87890625 172.015625 C197.23986068 174.28615105 197.23986068 174.28615105 199.37890625 176.078125 C207.90361358 196.05404936 205.80988602 219.79909517 205.41601562 241.0100708 C205.38252867 242.87625231 205.3568088 244.74256926 205.33203125 246.60888672 C205.1642571 257.78159649 204.16703762 268.50658919 202.17285156 279.49902344 C200.20794996 290.49763788 198.80195789 301.56103199 197.37890625 312.640625 C197.2501712 313.64048431 197.12143616 314.64034363 196.98880005 315.67050171 C196.35073513 320.63068668 195.71594383 325.59127969 195.08398438 330.55224609 C194.45413531 335.49528018 193.81705888 340.43734313 193.17578125 345.37890625 C191.4395854 358.71699661 191.4395854 358.71699661 189.76171875 372.0625 C189.6730957 372.78260254 189.58447266 373.50270508 189.49316406 374.24462891 C189.28333076 375.96226437 189.07693194 377.68031869 188.87109375 379.3984375 C188.57958848 381.57778644 188.2622997 383.7543617 187.88867188 385.92114258 C186.54897545 393.84668651 186.06307404 401.48352747 186.12890625 409.515625 C186.13905762 411.32945679 186.13905762 411.32945679 186.14941406 413.17993164 C185.84868498 442.86089525 185.84868498 442.86089525 199.37890625 468.078125 C207.06832699 474.64650083 214.69884082 474.7903933 224.37890625 474.078125 C228.18228371 473.54271154 231.90930374 472.7066083 235.6484375 471.83203125 C238.46934559 471.26194197 240.99016825 470.92605995 243.8347168 470.71362305 C249.984413 470.11720304 255.83541397 468.66477247 261.81640625 467.15625 C264.31222092 466.54216467 266.80824321 465.92892273 269.30444336 465.31640625 C270.63077796 464.98913615 271.95710226 464.66182429 273.28341675 464.33447266 C335.30456957 449.06263526 397.87196002 437.15799623 461.56568909 431.70127869 C467.46108859 431.18580985 473.33082515 430.52227904 479.20526123 429.80986023 C486.47997453 428.93206637 493.76774407 428.22572054 501.06640625 427.578125 C501.77236938 427.51464874 502.47833252 427.45117249 503.20568848 427.38577271 C516.90672153 426.16551851 530.62017779 425.39795554 544.36206055 424.8125 C545.12614731 424.77753922 545.89023407 424.74257843 546.67747498 424.70655823 C548.73169295 424.61289357 550.78624814 424.52670573 552.84082031 424.44116211 C556.55654249 424.21443844 560.17640424 423.65370186 563.85205078 423.07055664 C572.00755224 421.86998075 580.07162446 421.71295182 588.29296875 421.671875 C589.4593091 421.66339287 589.4593091 421.66339287 590.64921188 421.65473938 C594.75443554 421.62505195 598.85952371 421.60640038 602.96484375 421.59765625 C607.16534055 421.58665085 611.36455277 421.53843875 615.56464577 421.48171234 C618.83521063 421.44422288 622.1054707 421.43403661 625.37623215 421.4309845 C626.92381279 421.42499628 628.47139237 421.40916275 630.01875687 421.38261414 C639.83715306 421.22598987 648.11865815 422.10834132 656.37890625 428.078125 C658.39388513 430.56154687 658.72931195 431.83015351 659.37890625 435.078125 C657.41557196 450.52982086 643.71855203 465.40830658 632.37890625 475.078125 C625.89823391 479.4632506 620.10393424 483.20256118 612.14868164 483.20874023 C610.54941078 483.21128563 610.54941078 483.21128563 608.91783142 483.21388245 C607.76158768 483.20904343 606.60534393 483.20420441 605.4140625 483.19921875 C604.20911636 483.19635361 603.00417023 483.19348846 601.76271057 483.1905365 C589.96101787 483.13046567 578.17849387 482.74417372 566.38677979 482.2802124 C560.16198661 482.03684775 553.93643164 481.81443303 547.7109375 481.58984375 C545.85731598 481.52256073 545.85731598 481.52256073 543.96624756 481.45391846 C509.43662296 480.20828591 474.93063661 479.78784607 440.37890625 480.078125 C439.20216339 480.08749084 439.20216339 480.08749084 438.00164795 480.0970459 C398.32008817 480.44685947 358.6121342 483.92312968 319.19710922 488.35295868 C317.22473202 488.57438375 315.25209251 488.79346815 313.27944946 489.01251221 C292.67654234 491.32063898 272.42159582 494.30284538 252.35595703 499.578125 C250.23403166 500.11476407 248.10496684 500.60165233 245.96875 501.078125 C239.04426999 502.62460981 232.31746065 504.13749007 225.84765625 507.1484375 C213.9663783 511.62271622 197.03647071 512.47170255 185.02636719 508.25146484 C181.08864158 506.20714386 178.19144095 503.46430539 175.37890625 500.078125 C174.90324219 499.541875 174.42757813 499.005625 173.9375 498.453125 C169.99093838 492.86094913 168.877864 484.65263793 167.37890625 478.078125 C167.21245605 477.36414551 167.04600586 476.65016602 166.87451172 475.91455078 C159.28557665 441.05763698 161.4988551 404.53153297 165.62890625 369.453125 C165.85401886 367.53998505 165.85401886 367.53998505 166.0836792 365.5881958 C168.0647478 348.99938246 170.509837 332.53483496 173.37890625 316.078125 C177.11274477 294.3596785 179.21114706 273.25239887 179.34375 251.22021484 C179.36953913 247.27159983 179.46441894 243.3263251 179.56640625 239.37890625 C180.007183 217.94808559 177.99455761 196.56459205 171.37890625 176.078125 C171.15396484 175.35737793 170.92902344 174.63663086 170.69726562 173.89404297 C164.24486489 153.40043509 154.6697971 134.36419131 143.55566406 116.02294922 C142.55198422 114.36417047 141.56873828 112.69305617 140.58984375 111.01953125 C126.2912954 87.31775036 105.71169746 67.64856388 82.37890625 53.078125 C81.75677246 52.67819336 81.13463867 52.27826172 80.49365234 51.86621094 C65.790462 42.48573552 48.78707028 37.29887776 31.37890625 36.078125 C30.45384277 36.01254395 29.5287793 35.94696289 28.57568359 35.87939453 C-15.77022578 33.01637484 -64.01890152 36.25269432 -100.765625 63.828125 C-102.62109375 65.078125 -102.62109375 65.078125 -104.62109375 65.078125 C-104.62109375 65.738125 -104.62109375 66.398125 -104.62109375 67.078125 C-105.18304443 67.36800293 -105.74499512 67.65788086 -106.32397461 67.95654297 C-111.81099616 70.88072608 -116.47091478 74.16906695 -121.18359375 78.203125 C-127.31575772 83.33368507 -133.61886807 88.00287624 -140.30493164 92.38720703 C-144.19219055 94.96465599 -147.35629665 97.71389245 -150.62109375 101.078125 C-156.83197406 105.89495736 -163.54294498 109.13595582 -170.84765625 111.9296875 C-176.39472224 114.06317442 -181.73241046 116.51126605 -187.05859375 119.140625 C-187.75734619 119.48125977 -188.45609863 119.82189453 -189.17602539 120.17285156 C-192.47957509 121.82643779 -195.109639 123.3786571 -197.62109375 126.078125 C-186.55394294 134.59131793 -174.1279946 140.16838591 -161.25732422 145.36987305 C-135.94364961 155.6128809 -113.61458945 167.21102342 -93.62109375 186.078125 C-92.615625 187.02171875 -92.615625 187.02171875 -91.58984375 187.984375 C-88.81241481 190.6676538 -86.3893561 193.25347743 -84.30859375 196.515625 C-83.75171875 197.36125 -83.19484375 198.206875 -82.62109375 199.078125 C-81.96109375 199.078125 -81.30109375 199.078125 -80.62109375 199.078125 C-62.96999824 244.97097332 -88.51070923 292.64636775 -104.86859131 336.07958984 C-116.40187284 366.52162271 -116.40187284 366.52162271 -124.07226562 398.08935547 C-124.6664886 401.3253331 -125.3249683 404.54543678 -125.98046875 407.76953125 C-129.4951238 426.03519846 -130.06599003 443.60829674 -129.74284363 462.17401123 C-129.33327725 485.99160673 -129.33327725 485.99160673 -133.18359375 491.203125 C-138.01798418 495.8308194 -143.23486977 497.2089302 -149.80859375 497.453125 C-153.85624438 497.31033978 -156.49030484 496.82942435 -159.62109375 494.078125 C-164.55665764 488.08494028 -163.76054629 480.24426724 -163.125 472.94921875 C-162.83787612 470.13467036 -162.51607473 467.32514551 -162.18359375 464.515625 C-162.09695465 463.7655719 -162.01031555 463.0155188 -161.92105103 462.24273682 C-158.66280564 434.49108552 -153.07152943 406.71991246 -144.62109375 380.078125 C-144.03569824 378.2230835 -144.03569824 378.2230835 -143.43847656 376.33056641 C-138.10167486 359.51853468 -132.17177614 342.99828722 -125.69848633 326.59228516 C-122.70616559 318.99392981 -119.93730882 311.41294081 -117.68359375 303.5625 C-116.82828268 300.7575828 -115.8797501 298.06882001 -114.84765625 295.328125 C-112.13164905 287.93524904 -109.93007376 280.39569021 -107.72949219 272.83691406 C-107.00067311 270.34378995 -106.25638131 267.85561792 -105.51171875 265.3671875 C-100.29549875 247.65609915 -95.6097944 226.82007223 -103.05859375 209.015625 C-111.7301862 193.64905308 -129.88969405 184.64027449 -144.62109375 176.078125 C-145.30703613 175.6749707 -145.99297852 175.27181641 -146.69970703 174.85644531 C-156.65213711 168.93750701 -156.65213711 168.93750701 -167.41796875 164.8046875 C-173.9849819 162.6389704 -180.08495427 159.17527902 -185.71875 155.21484375 C-191.16384614 151.54073649 -196.99587593 149.17525494 -203.05859375 146.703125 C-205.54405903 145.66539813 -208.0275629 144.62423697 -210.5078125 143.57421875 C-211.15618073 143.29973404 -211.80454895 143.02524933 -212.4725647 142.7424469 C-221.95483685 138.69406573 -231.24176082 134.21488891 -240.54467773 129.77392578 C-241.21889267 129.45284851 -241.8931076 129.13177124 -242.5877533 128.80096436 C-243.92330051 128.16478846 -245.25800174 127.52683323 -246.59181213 126.88702393 C-250.05694006 125.23832572 -253.53871171 123.67720177 -257.08789062 122.21728516 C-257.81816467 121.91337357 -258.54843872 121.60946198 -259.30084229 121.29634094 C-260.69337811 120.72193327 -262.09143191 120.16065624 -263.49554443 119.61515808 C-267.71331099 117.86996979 -269.78704494 116.29243539 -271.62109375 112.078125 C-271.62109375 111.418125 -271.62109375 110.758125 -271.62109375 110.078125 C-272.61109375 110.078125 -273.60109375 110.078125 -274.62109375 110.078125 C-274.62109375 109.418125 -274.62109375 108.758125 -274.62109375 108.078125 C-275.38421875 108.305 -276.14734375 108.531875 -276.93359375 108.765625 C-277.82046875 108.86875 -278.70734375 108.971875 -279.62109375 109.078125 C-281.43359375 107.640625 -281.43359375 107.640625 -282.62109375 106.078125 C-282.12609375 105.088125 -282.12609375 105.088125 -281.62109375 104.078125 C-280.96109375 104.408125 -280.30109375 104.738125 -279.62109375 105.078125 C-279.62109375 104.088125 -279.62109375 103.098125 -279.62109375 102.078125 C-275.98071838 101.25611817 -272.53256905 100.91028899 -268.8046875 100.796875 C-267.1640332 100.74080078 -267.1640332 100.74080078 -265.49023438 100.68359375 C-263.19857139 100.61316131 -260.90690471 100.54284922 -258.61523438 100.47265625 C-257.52275391 100.43527344 -256.43027344 100.39789063 -255.3046875 100.359375 C-254.31009521 100.32908203 -253.31550293 100.29878906 -252.29077148 100.26757812 C-249.91894953 100.09926227 -247.90797858 99.67898229 -245.62109375 99.078125 C-243.66039856 98.98573622 -241.69934908 98.89679198 -239.73730469 98.83984375 C-229.66013184 98.51518706 -220.31066972 96.81228645 -210.62109375 94.078125 C-209.50557129 93.76810547 -208.39004883 93.45808594 -207.24072266 93.13867188 C-185.66345386 87.08606272 -165.87929782 79.65664698 -146.62109375 68.078125 C-145.98091309 67.69479004 -145.34073242 67.31145508 -144.68115234 66.91650391 C-138.32500323 63.07441428 -132.31683988 59.28999165 -127.265625 53.765625 C-124.70512944 51.13822813 -121.77552246 49.02995852 -118.83203125 46.8515625 C-116.51960103 45.07592392 -116.51960103 45.07592392 -114.34375 42.69921875 C-111.05301583 39.53123793 -107.5331109 37.19833915 -103.68359375 34.765625 C-102.56513062 34.05104126 -102.56513062 34.05104126 -101.42407227 33.32202148 C-89.75164563 25.92323515 -77.84907222 18.63670178 -64.703125 14.203125 C-63.97176331 13.95287064 -63.24040161 13.70261627 -62.48687744 13.44477844 C-60.13875497 12.64671836 -57.78696481 11.86056416 -55.43359375 11.078125 C-54.63073944 10.81011078 -53.82788513 10.54209656 -53.0007019 10.26596069 C-40.68844068 6.1785646 -28.53297057 2.67707002 -15.62109375 1.078125 C-14.53054688 0.93246094 -13.44 0.78679687 -12.31640625 0.63671875 C-8.21132506 0.21554808 -4.12282445 0.12288597 0 0 Z " fill="#FD9A35" transform="translate(756.62109375,141.921875)"/>
<path d="M0 0 C6.17094878 4.99939648 9.33576532 11.01455786 12.328125 18.24609375 C13.50888153 20.90279593 14.47766875 22.6200862 16.18359375 24.87109375 C18.75688503 28.41251709 20.73986326 32.06124435 22.640625 35.99609375 C22.9811792 36.69178467 23.3217334 37.38747559 23.67260742 38.10424805 C24.38271994 39.56023179 25.08948951 41.01785052 25.79296875 42.47705078 C26.76346485 44.48716794 27.74782312 46.48991701 28.734375 48.4921875 C40.10779809 71.82206077 48.43840381 95.53694731 54.828125 120.62109375 C55.12589844 121.78060547 55.42367187 122.94011719 55.73046875 124.13476562 C61.68016385 147.61823958 64.62217635 171.42620707 67.515625 195.43359375 C67.62439972 196.33287598 67.73317444 197.2321582 67.84524536 198.15869141 C73.60948487 246.09191307 73.6012205 296.75690553 58.03515625 342.9609375 C56.68233324 347.06318722 55.56527269 351.19896655 54.453125 355.37109375 C51.43277867 366.50877148 47.60347952 377.37386083 43.4777832 388.1472168 C40.74285638 395.291579 38.17313019 402.45600258 35.86328125 409.75 C35.61834427 410.52265198 35.37340729 411.29530396 35.12104797 412.09136963 C34.12483247 415.2455107 33.13331943 418.4010067 32.15356445 421.56030273 C28.79799702 432.34899075 24.8883662 442.51279567 19.828125 452.62109375 C19.168125 452.62109375 18.508125 452.62109375 17.828125 452.62109375 C17.54598145 453.34079346 17.26383789 454.06049316 16.97314453 454.80200195 C15.88504438 457.48095557 14.72026681 460.10186058 13.5078125 462.7265625 C12.83407593 464.18920532 12.83407593 464.18920532 12.14672852 465.68139648 C11.43214478 467.22935913 11.43214478 467.22935913 10.703125 468.80859375 C6.30396038 478.37013935 1.96640444 487.95571274 -2.27197266 497.58959961 C-2.92655402 499.06729128 -3.58870667 500.54163615 -4.25537109 502.01391602 C-4.6158252 502.81240967 -4.9762793 503.61090332 -5.34765625 504.43359375 C-5.67805908 505.160625 -6.00846191 505.88765625 -6.34887695 506.63671875 C-7.30039162 508.9309671 -7.85411042 511.15841825 -8.171875 513.62109375 C-8.831875 513.62109375 -9.491875 513.62109375 -10.171875 513.62109375 C-10.56375 514.85859375 -10.955625 516.09609375 -11.359375 517.37109375 C-12.99353639 522.31267268 -15.00469993 527.05629269 -17.0859375 531.82421875 C-18.09989679 534.43571103 -18.71894505 536.8632536 -19.171875 539.62109375 C-19.831875 539.62109375 -20.491875 539.62109375 -21.171875 539.62109375 C-21.295625 540.30171875 -21.419375 540.98234375 -21.546875 541.68359375 C-22.26288377 545.04883495 -23.20132625 548.321228 -24.171875 551.62109375 C-24.831875 551.62109375 -25.491875 551.62109375 -26.171875 551.62109375 C-25.841875 553.93109375 -25.511875 556.24109375 -25.171875 558.62109375 C-25.831875 558.62109375 -26.491875 558.62109375 -27.171875 558.62109375 C-26.511875 560.60109375 -25.851875 562.58109375 -25.171875 564.62109375 C-25.831875 564.95109375 -26.491875 565.28109375 -27.171875 565.62109375 C-29.05221375 567.81482229 -30.15228665 569.56494047 -31.109375 572.30859375 C-32.171875 574.62109375 -32.171875 574.62109375 -34.296875 575.43359375 C-35.225 575.52640625 -35.225 575.52640625 -36.171875 575.62109375 C-36.2853125 576.31203125 -36.39875 577.00296875 -36.515625 577.71484375 C-37.5186484 582.15680452 -39.32093779 586.24783139 -41.015625 590.46484375 C-42.01967724 593.205635 -42.70030813 595.74882279 -43.171875 598.62109375 C-43.831875 598.62109375 -44.491875 598.62109375 -45.171875 598.62109375 C-45.254375 599.25917969 -45.336875 599.89726563 -45.421875 600.5546875 C-46.47233728 604.84954628 -48.32303458 608.67885025 -50.171875 612.68359375 C-50.90406546 614.27726006 -51.63334078 615.87226965 -52.359375 617.46875 C-52.84470703 618.52074585 -52.84470703 618.52074585 -53.33984375 619.59399414 C-54.15773145 621.58663544 -54.70528292 623.52113483 -55.171875 625.62109375 C-55.831875 625.62109375 -56.491875 625.62109375 -57.171875 625.62109375 C-57.378125 626.38421875 -57.584375 627.14734375 -57.796875 627.93359375 C-62.39590942 640.26736787 -70.5229295 652.93720076 -82.1015625 659.7578125 C-86.81199499 661.72197397 -91.75862694 661.16465069 -96.421875 659.37109375 C-101.86178068 655.90933559 -104.38295886 653.95110472 -106.171875 647.62109375 C-106.831875 646.96109375 -107.491875 646.30109375 -108.171875 645.62109375 C-107.511875 645.62109375 -106.851875 645.62109375 -106.171875 645.62109375 C-106.12289063 644.99203125 -106.07390625 644.36296875 -106.0234375 643.71484375 C-105.53752301 638.15196061 -104.66633874 633.00116323 -103.171875 627.62109375 C-102.511875 627.62109375 -101.851875 627.62109375 -101.171875 627.62109375 C-100.96304687 626.64269531 -100.75421875 625.66429687 -100.5390625 624.65625 C-99.14290694 619.77952034 -96.28576783 616.09037365 -93.296875 612.05859375 C-92.23635531 610.59941154 -91.17644765 609.1397843 -90.1171875 607.6796875 C-89.35970215 606.64884033 -89.35970215 606.64884033 -88.58691406 605.59716797 C-87.29739004 603.79637304 -86.09835312 601.96457796 -84.9140625 600.09375 C-84.33914063 599.27777344 -83.76421875 598.46179687 -83.171875 597.62109375 C-82.511875 597.62109375 -81.851875 597.62109375 -81.171875 597.62109375 C-80.89085937 596.89921875 -80.60984375 596.17734375 -80.3203125 595.43359375 C-79.23415784 592.77362315 -78.06219159 590.20008297 -76.796875 587.62109375 C-76.39726563 586.79609375 -75.99765625 585.97109375 -75.5859375 585.12109375 C-74.171875 582.62109375 -74.171875 582.62109375 -72.171875 580.1640625 C-70.06346295 577.48324952 -68.85891054 575.07684455 -67.546875 571.93359375 C-67.30525635 571.35617432 -67.0636377 570.77875488 -66.81469727 570.18383789 C-62.82007935 560.50517866 -59.15224603 550.68957682 -55.42529297 540.90576172 C-53.35222896 535.47315495 -51.26190668 530.04719087 -49.171875 524.62109375 C-48.511875 524.62109375 -47.851875 524.62109375 -47.171875 524.62109375 C-46.92566406 523.96238281 -46.67945313 523.30367187 -46.42578125 522.625 C-44.53561519 518.09684518 -42.25160648 513.77634231 -40.00585938 509.41601562 C-39.65716797 508.72958984 -39.30847656 508.04316406 -38.94921875 507.3359375 C-38.63202881 506.718396 -38.31483887 506.10085449 -37.98803711 505.46459961 C-37.13563311 503.53923238 -36.62355546 501.67421253 -36.171875 499.62109375 C-35.511875 499.62109375 -34.851875 499.62109375 -34.171875 499.62109375 C-34.04731934 498.88681152 -33.92276367 498.1525293 -33.79443359 497.39599609 C-33.1992672 494.74318779 -32.39558736 492.65852149 -31.2109375 490.22265625 C-30.62699219 489.00835938 -30.62699219 489.00835938 -30.03125 487.76953125 C-29.62390625 486.93679688 -29.2165625 486.1040625 -28.796875 485.24609375 C-26.13307276 479.74663106 -23.57354336 474.2414929 -21.171875 468.62109375 C-20.4299781 467.02737653 -19.68199803 465.43648427 -18.9296875 463.84765625 C-13.34833504 452.00790436 -8.27805421 440.06918219 -3.546875 427.87109375 C0.22526248 418.15035873 4.06957721 408.5074191 8.43920898 399.03564453 C11.76324619 391.82862761 14.90034683 384.54512278 18.015625 377.24609375 C18.50297119 376.10487061 18.99031738 374.96364746 19.49243164 373.7878418 C20.45138394 371.54032273 21.4083422 369.29195179 22.36328125 367.04272461 C23.37326658 364.68356721 24.39759648 362.33051688 25.43359375 359.98266602 C28.27830158 353.5014559 30.84636967 347.20690996 32.453125 340.30859375 C32.75150269 339.06045898 32.75150269 339.06045898 33.0559082 337.78710938 C41.89261253 299.46535052 42.37086276 259.71568683 39.828125 220.62109375 C39.498125 220.62109375 39.168125 220.62109375 38.828125 220.62109375 C38.74771973 219.58404297 38.66731445 218.54699219 38.58447266 217.47851562 C38.27882303 213.54934172 37.96820457 209.62057246 37.65625 205.69189453 C37.52310484 204.00677611 37.39122337 202.32155726 37.26074219 200.63623047 C36.4038414 189.58221027 35.2893114 178.61208116 33.828125 167.62109375 C33.49058749 164.95493403 33.15911027 162.28807826 32.828125 159.62109375 C33.488125 159.62109375 34.148125 159.62109375 34.828125 159.62109375 C30.06910906 122.36342866 22.94853779 87.53207992 0.828125 56.12109375 C0.44140625 55.54101562 0.0546875 54.9609375 -0.34375 54.36328125 C-2.53520991 51.2468545 -4.38267086 49.33280931 -7.796875 47.58984375 C-11.171875 45.62109375 -11.171875 45.62109375 -12.484375 42.71875 C-15.10672934 37.90503012 -19.36223472 36.40320977 -24.171875 34.05859375 C-25.06777344 33.60291016 -25.96367188 33.14722656 -26.88671875 32.67773438 C-28.71944726 31.75348176 -30.56280242 30.85003849 -32.41552734 29.96655273 C-34.19568333 29.09760325 -35.95008156 28.17273771 -37.66650391 27.18383789 C-46.37587133 22.47650084 -54.9200282 22.97655619 -64.546875 23.18359375 C-66.33698269 23.20588253 -68.12710398 23.22710279 -69.91723633 23.24731445 C-75.33706894 23.32235173 -80.75398552 23.45980201 -86.171875 23.62109375 C-87.34414642 23.65523376 -87.34414642 23.65523376 -88.5401001 23.69006348 C-110.10573157 24.3472284 -131.52674402 26.34280816 -152.9909668 28.46096802 C-168.40199236 29.97880772 -183.76731291 31.17352814 -199.23748779 31.85009766 C-211.64745407 32.39328508 -223.9832999 33.27018951 -236.34643555 34.48095703 C-244.00812959 35.21780297 -251.66362894 35.78847555 -259.3470459 36.25393677 C-279.66370747 37.4886359 -299.91227622 39.29822652 -320.171875 41.24609375 C-321.06855392 41.33177864 -321.96523285 41.41746353 -322.88908386 41.50574493 C-347.14473422 43.82490624 -371.31570412 46.4217276 -395.421875 49.99609375 C-397.13383057 50.24930389 -397.13383057 50.24930389 -398.88037109 50.50762939 C-402.04680957 50.98121573 -405.21134882 51.46519524 -408.375 51.95703125 C-409.27833069 52.09631042 -410.18166138 52.2355896 -411.11236572 52.37908936 C-416.62447277 53.26587679 -421.81713174 54.52963037 -427.12890625 56.2578125 C-434.9727079 57.65259941 -445.29502476 56.64469255 -452.34765625 52.91015625 C-457.98370623 48.92750852 -461.82690391 43.06317726 -464.171875 36.62109375 C-464.79541626 32.72396089 -464.43540459 31.12707057 -462.609375 27.62109375 C-461.805 26.63109375 -461.000625 25.64109375 -460.171875 24.62109375 C-459.74390625 24.09128906 -459.3159375 23.56148437 -458.875 23.015625 C-449.79057671 13.53317285 -430.98208081 14.94947142 -418.81787109 14.34155273 C-413.29912285 14.06445898 -407.78251857 13.7490306 -402.265625 13.4375 C-401.11457275 13.37325836 -399.96352051 13.30901672 -398.77758789 13.24282837 C-385.89850866 12.51331612 -373.03592829 11.57541408 -360.171875 10.62109375 C-357.85132368 10.45012307 -355.53076706 10.27922435 -353.21020508 10.10839844 C-345.50196675 9.53973805 -337.7940902 8.96625353 -330.08636475 8.39068604 C-324.37713656 7.96445796 -318.66767228 7.54177455 -312.95776367 7.12475586 C-310.50216363 6.94409864 -308.04698888 6.75836974 -305.59179688 6.57226562 C-280.64992631 4.72284569 -255.65973272 4.3996306 -230.66088867 4.06884766 C-213.25302836 3.8919724 -213.25302836 3.8919724 -195.8671875 3.0859375 C-188.4882883 2.58883465 -181.18128843 2.57220805 -173.79232788 2.65991211 C-158.24954073 2.82852716 -142.80385564 2.31892986 -127.29272461 1.33227539 C-117.33861076 0.72660884 -107.4415955 0.59230392 -97.46875 0.6484375 C-81.86840145 0.72377701 -66.34500979 0.10504791 -50.76873779 -0.71130371 C-48.00413407 -0.85413314 -45.23915418 -0.9887643 -42.47413731 -1.12332058 C-39.12450031 -1.28692817 -35.77514852 -1.45595587 -32.42578125 -1.625 C-31.2081459 -1.68546005 -29.99051056 -1.7459201 -28.73597717 -1.80821228 C-4.82843828 -3.06553726 -4.82843828 -3.06553726 0 0 Z " fill="#066E3A" transform="translate(617.171875,775.37890625)"/>
<path d="M0 0 C2.98922645 0.88868894 3.82457109 1.77444854 5.75 4.25 C7.25036726 7.55080798 7.51318494 9.40770542 7 13 C5.41462648 15.80489161 3.61817837 18.24802412 1.57421875 20.734375 C-4.87223244 28.79660337 -7.80790573 37.83702827 -10.33203125 47.71484375 C-10.77270344 49.41504251 -11.21371236 51.11515403 -11.6550293 52.81518555 C-11.87830902 53.6784848 -12.10158875 54.54178406 -12.33163452 55.4312439 C-13.37027498 59.42309282 -14.44042449 63.4063886 -15.5078125 67.390625 C-46.46265589 177.34150837 -46.46265589 177.34150837 -52.5 290.5625 C-52.13387392 295.31250417 -51.98800832 299.94807327 -52.109375 304.7109375 C-52.59650747 325.73987704 -50.39390492 346.26868034 -48.00163269 367.13743591 C-47.27798785 373.45563789 -46.60791683 379.77627362 -45.98828125 386.10546875 C-44.17264644 404.39751881 -41.50206584 422.13532411 -37 440 C-36.67298096 441.3003418 -36.67298096 441.3003418 -36.33935547 442.62695312 C-33.85576194 452.25063534 -30.39265759 461.07395894 -26 470 C-25.35406427 471.40441321 -24.71239554 472.8107941 -24.07421875 474.21875 C-18.57033129 486.27322913 -12.20237025 497.72778669 -5.59130859 509.20507812 C-4.04681059 511.91778343 -2.54096191 514.6477628 -1.05078125 517.390625 C-0.59695068 518.22392334 -0.14312012 519.05722168 0.32446289 519.91577148 C1.16902297 521.47219091 2.00836653 523.03145649 2.84155273 524.59399414 C4.65433818 527.91892885 5.79555236 529.86370157 9 532 C9 532.99 9 533.98 9 535 C9.95495996 536.71977501 9.95495996 536.71977501 11.30859375 538.44140625 C11.80399658 539.10269531 12.29939941 539.76398437 12.80981445 540.4453125 C13.34695068 541.14398437 13.88408691 541.84265625 14.4375 542.5625 C14.98301514 543.28050781 15.52853027 543.99851562 16.09057617 544.73828125 C20.45486957 550.42355787 25.11134638 555.76012272 30 561 C31.1724425 562.3282573 32.33936217 563.66141541 33.5 565 C34.66567418 566.33420111 35.83249264 567.66740274 37 569 C37.95447021 570.09235962 37.95447021 570.09235962 38.92822266 571.20678711 C42.92834126 575.72276649 47.02365604 580.06566813 51.3671875 584.25390625 C52.27210938 585.12853516 53.17703125 586.00316406 54.109375 586.90429688 C55.96728457 588.69004187 57.83466219 590.46598362 59.7109375 592.23242188 C64.96120392 597.3431338 68.82690638 601.5980654 70 609 C70 612.20395416 69.25664978 614.09399739 68 617 C68.66 617.33 69.32 617.66 70 618 C71.09378249 620.57820159 71.20947337 622.32415195 70.37890625 625.00390625 C68.81901742 628.51851055 67.46356424 630.6468082 64.375 633 C57.3408719 635.0841861 50.95460738 634.76636883 44.3671875 631.4609375 C37.58863118 627.27747205 31.87227451 622.92016618 28.08374023 615.83178711 C26.12565326 612.52213931 23.50462503 609.78275878 20.9375 606.9375 C11.89471614 596.68432514 3.48959222 586.41835937 -3.34375 574.546875 C-4.9063044 571.77709636 -4.9063044 571.77709636 -8 570 C-9.01177703 568.34045638 -10.00984176 566.67253235 -11 565 C-12.61975499 563.03017789 -14.25695886 561.10329299 -15.9375 559.1875 C-53.00309095 516.06490992 -53.00309095 516.06490992 -52 495 C-52.66 495 -53.32 495 -54 495 C-54.19335938 494.43410156 -54.38671875 493.86820313 -54.5859375 493.28515625 C-54.84632813 492.55167969 -55.10671875 491.81820313 -55.375 491.0625 C-55.63023437 490.33160156 -55.88546875 489.60070313 -56.1484375 488.84765625 C-56.85271413 486.81317884 -56.85271413 486.81317884 -59 486 C-60.03532459 483.38284518 -60.94889618 480.79924055 -61.8125 478.125 C-62.04775391 477.43019531 -62.28300781 476.73539063 -62.52539062 476.01953125 C-63.40040652 473.36003412 -64.20258573 470.68382986 -65 468 C-65.36182373 466.82945068 -65.72364746 465.65890137 -66.09643555 464.45288086 C-70.70801622 448.774192 -72.90783915 432.54554729 -75.39428711 416.42651367 C-75.91726784 413.03856779 -76.45137109 409.65271033 -76.99682617 406.26831055 C-82.09185566 374.64339903 -84.19211861 343.61601431 -84.625 311.5625 C-84.66343568 309.22199483 -84.70249898 306.88149988 -84.7421875 304.54101562 C-84.85342597 297.69420717 -84.93554131 290.8474005 -85 284 C-85.01093689 282.88050964 -85.02187378 281.76101929 -85.03314209 280.60760498 C-85.13829539 268.34779684 -85.16172443 256.20537739 -83.875 244 C-83.74230713 242.70989014 -83.60961426 241.41978027 -83.47290039 240.09057617 C-80.31190441 210.73923234 -73.28717389 181.95511292 -66.53259277 153.26898193 C-66.06972603 151.29705077 -65.61293616 149.32369511 -65.15722656 147.35009766 C-59.6578713 123.55350484 -52.20666275 100.18927576 -44.8046875 76.92578125 C-43.00074837 71.25396987 -41.27805303 65.58036448 -39.74609375 59.82788086 C-36.79412251 48.76379055 -32.76448459 38.39997653 -28 28 C-27.484375 26.85660156 -26.96875 25.71320312 -26.4375 24.53515625 C-14.06514286 -1.588 -14.06514286 -1.588 0 0 Z " fill="#0E7442" transform="translate(960,797)"/>
<path d="M0 0 C2.93454511 2.10708478 4.95542158 4.38532725 7.22265625 7.1953125 C7.98964844 8.13117188 8.75664063 9.06703125 9.546875 10.03125 C12.97063029 14.83392442 14.6094231 19.8895743 14.53515625 25.8203125 C13.10029416 33.56339711 9.73305256 37.60638428 3.28515625 42.0703125 C-3.15886782 45.49413522 -10.06738929 45.3051735 -17.0390625 43.66796875 C-22.72830104 41.67994176 -26.97436178 38.24638407 -29.96484375 33.0078125 C-32.4211778 27.27636638 -32.24859062 21.65426343 -30.40234375 15.7578125 C-27.36088418 8.63738613 -22.279577 3.64168353 -15.26171875 0.51171875 C-10.08458335 -1.48035291 -5.10893443 -2.44516355 0 0 Z M-14.2890625 13.2890625 C-18.66554266 17.99956944 -18.66554266 17.99956944 -20.15234375 24.0703125 C-19.40684649 28.13666119 -18.74359063 29.40946921 -15.46484375 31.8203125 C-11.99916117 33.55315379 -8.25413782 33.29152005 -4.46484375 32.8203125 C-1.31051391 31.04600196 0.06074884 29.82493996 1.59765625 26.5703125 C1.50163166 22.34523049 0.03009795 19.20579997 -2.46484375 15.8203125 C-5.97581211 12.96217726 -10.23263434 10.02307323 -14.2890625 13.2890625 Z " fill="#FB9B39" transform="translate(769.46484375,244.1796875)"/>
<path d="M0 0 C0.99 0 1.98 0 3 0 C3.66 1.65 4.32 3.3 5 5 C4.01 5.66 3.02 6.32 2 7 C2.66 7.66 3.32 8.32 4 9 C1.94766315 11.2477975 0.99332739 12.0022242 -2 13 C-2.33 12.34 -2.66 11.68 -3 11 C-4.21297649 13.2806707 -4.21297649 13.2806707 -5 16 C-4.09166275 18.06669397 -4.09166275 18.06669397 -3 20 C-3.30271961 21.34061543 -3.63837971 22.67405895 -4 24 C-3.61432869 26.68149993 -3.61432869 26.68149993 -3 29 C-5.31 29 -7.62 29 -10 29 C-11.485 32.465 -11.485 32.465 -13 36 C-12.67 36.33 -12.34 36.66 -12 37 C-12 37.66 -12 38.32 -12 39 C-13.485 39.495 -13.485 39.495 -15 40 C-14.34 41.32 -13.68 42.64 -13 44 C-13.78375 44.268125 -14.5675 44.53625 -15.375 44.8125 C-18.28114923 45.84814432 -18.28114923 45.84814432 -20 49 C-20 47.35 -20 45.7 -20 44 C-19.34 44 -18.68 44 -18 44 C-17.87625 42.948125 -17.7525 41.89625 -17.625 40.8125 C-17.08859218 37.54041229 -16.36119965 34.99463924 -15 32 C-14.34 32 -13.68 32 -13 32 C-12.91878906 31.04996094 -12.83757813 30.09992188 -12.75390625 29.12109375 C-12.03608042 24.09631296 -9.96941848 19.67730622 -7.9375 15.0625 C-7.56044922 14.18787109 -7.18339844 13.31324219 -6.79492188 12.41210938 C-5.87077032 10.27135324 -4.9390249 8.13426353 -4 6 C-3.34 6 -2.68 6 -2 6 C-1.34 4.02 -0.68 2.04 0 0 Z M1 1 C2 4 2 4 2 4 Z M-8 20 C-7 22 -7 22 -7 22 Z M-7 22 C-6 25 -6 25 -6 25 Z M-9 24 C-9.33 24.66 -9.66 25.32 -10 26 C-9.67 26.66 -9.34 27.32 -9 28 C-8.01 27.67 -7.02 27.34 -6 27 C-6.99 26.01 -7.98 25.02 -9 24 Z M-17 42 C-16 44 -16 44 -16 44 Z " fill="#8194BB" transform="translate(611,1283)"/>
<path d="M0 0 C0.33 0 0.66 0 1 0 C3.31635079 41.57726454 5.52495562 88.07124356 -8 128 C-8.66 128.33 -9.32 128.66 -10 129 C-9.34 124.38 -8.68 119.76 -8 115 C-7.34 115 -6.68 115 -6 115 C-6 111.37 -6 107.74 -6 104 C-5.34 104 -4.68 104 -4 104 C-4.02320313 103.3709375 -4.04640625 102.741875 -4.0703125 102.09375 C-4.08835937 101.2378125 -4.10640625 100.381875 -4.125 99.5 C-4.14820313 98.6646875 -4.17140625 97.829375 -4.1953125 96.96875 C-4 94 -4 94 -3.0625 90.48046875 C-1.5276791 84.68301304 -1.2634943 78.77726495 -0.875 72.8125 C-0.79080811 71.5438208 -0.70661621 70.2751416 -0.61987305 68.96801758 C0.54725754 49.7866344 0.33991302 30.59108373 -0.73168945 11.40893555 C-0.80456177 10.02895386 -0.80456177 10.02895386 -0.87890625 8.62109375 C-0.9260376 7.8211499 -0.97316895 7.02120605 -1.02172852 6.19702148 C-0.99968793 3.96844574 -0.63177366 2.12991898 0 0 Z " fill="#4EE989" transform="translate(657,993)"/>
<path d="M0 0 C1.26364706 3.79094119 0.51859877 4.84170588 -0.984375 8.48046875 C-1.42523437 9.56263672 -1.86609375 10.64480469 -2.3203125 11.75976562 C-2.79210937 12.89091797 -3.26390625 14.02207031 -3.75 15.1875 C-4.66214056 17.40987636 -5.5736137 19.63252679 -6.484375 21.85546875 C-6.91814453 22.90782715 -7.35191406 23.96018555 -7.79882812 25.04443359 C-9.27294076 28.6715896 -10.65341722 32.32382902 -12 36 C-14.66666667 35.33333333 -17.33333333 34.66666667 -20 34 C-20 33.34 -20 32.68 -20 32 C-19.01 31.67 -18.02 31.34 -17 31 C-17.99 30.67 -18.98 30.34 -20 30 C-17.36095629 28.58622659 -14.92879371 27.62759865 -12 27 C-10.89155081 23.67465243 -11.15545644 21.37817425 -12 18 C-11.01 18.33 -10.02 18.66 -9 19 C-8.67 16.36 -8.34 13.72 -8 11 C-8.33 11.33 -8.66 11.66 -9 12 C-9.66 12 -10.32 12 -11 12 C-10.690625 11.13375 -10.690625 11.13375 -10.375 10.25 C-9.91338739 7.48032433 -10.57055055 6.35438733 -12 4 C-11.34 4 -10.68 4 -10 4 C-10 4.66 -10 5.32 -10 6 C-9.34 5.67 -8.68 5.34 -8 5 C-7.01 5 -6.02 5 -5 5 C-1.88667752 4.33131686 -1.88667752 4.33131686 -0.8125 1.9375 C-0.544375 1.298125 -0.27625 0.65875 0 0 Z M-14 32 C-13 34 -13 34 -13 34 Z " fill="#6D99BC" transform="translate(564,1308)"/>
<path d="M0 0 C2.52259061 1.97420135 2.9929808 2.96745642 3.6875 6.1875 C3.790625 7.115625 3.89375 8.04375 4 9 C4.66 9 5.32 9 6 9 C6.11214844 9.64582031 6.22429688 10.29164062 6.33984375 10.95703125 C11.20645777 34.20863156 26.26636651 52.56828608 41.02734375 70.44921875 C41.51058105 71.03493652 41.99381836 71.6206543 42.49169922 72.22412109 C43.55193064 73.47244148 44.63969693 74.69763984 45.74658203 75.90478516 C46.30587402 76.52015137 46.86516602 77.13551758 47.44140625 77.76953125 C47.95517822 78.31843018 48.4689502 78.8673291 48.99829102 79.43286133 C49.32885498 79.95001709 49.65941895 80.46717285 50 81 C49.505 82.485 49.505 82.485 49 84 C0 25.0916775 0 25.0916775 0 0 Z " fill="#78EBB2" transform="translate(902,1283)"/>
<path d="M0 0 C0.47050781 0.34933594 0.94101562 0.69867187 1.42578125 1.05859375 C2.04839844 1.51363281 2.67101562 1.96867187 3.3125 2.4375 C3.92738281 2.88996094 4.54226563 3.34242187 5.17578125 3.80859375 C9.50140896 6.63368251 14.02909894 6.44317097 19 6 C22.72510788 5.1753944 26.36086968 4.14275494 30 3 C30 4.98 30 6.96 30 9 C27.1875 10.125 27.1875 10.125 24 11 C23.01 10.34 22.02 9.68 21 9 C21 9.66 21 10.32 21 11 C13.41 11 5.82 11 -2 11 C-1 8 -1 8 1 5 C0.34 4.67 -0.32 4.34 -1 4 C-0.67 2.68 -0.34 1.36 0 0 Z M23 7 C23.33 7.66 23.66 8.32 24 9 C24.33 8.34 24.66 7.68 25 7 C24.34 7 23.68 7 23 7 Z " fill="#8173BA" transform="translate(514,1429)"/>
<path d="M0 0 C0.99 0.33 1.98 0.66 3 1 C2.46199791 5.98599117 0.88255471 9.51835705 -1.5625 13.875 C-2.20316406 15.02742188 -2.84382812 16.17984375 -3.50390625 17.3671875 C-3.99761719 18.23601562 -4.49132812 19.10484375 -5 20 C-5.66 20 -6.32 20 -7 20 C-7.144375 20.94875 -7.28875 21.8975 -7.4375 22.875 C-8 26 -8 26 -9 28 C-9.66 28 -10.32 28 -11 28 C-11.103125 28.639375 -11.20625 29.27875 -11.3125 29.9375 C-11.539375 30.618125 -11.76625 31.29875 -12 32 C-13.485 32.495 -13.485 32.495 -15 33 C-15.25 25.375 -15.25 25.375 -13 22 C-13.66 22 -14.32 22 -15 22 C-14.34 20.02 -13.68 18.04 -13 16 C-12.360625 16.185625 -11.72125 16.37125 -11.0625 16.5625 C-10.0415625 16.7790625 -10.0415625 16.7790625 -9 17 C-8.67 16.67 -8.34 16.34 -8 16 C-7.484375 15.525625 -6.96875 15.05125 -6.4375 14.5625 C-4.77431449 13.10854982 -4.77431449 13.10854982 -5 11 C-5.66 11 -6.32 11 -7 11 C-7 9.02 -7 7.04 -7 5 C-5.35 5.99 -3.7 6.98 -2 8 C-0.74335022 5.09399739 0 3.20395416 0 0 Z M-12 19 C-11 21 -11 21 -11 21 Z M-11 22 C-11 23.32 -11 24.64 -11 26 C-10.34 24.68 -9.68 23.36 -9 22 C-9.66 22 -10.32 22 -11 22 Z " fill="#6E83B8" transform="translate(575,1280)"/>
<path d="M0 0 C2.16874252 0.50603992 3.99967627 0.99983813 6 2 C5.67 2.66 5.34 3.32 5 4 C5.33 4.33 5.66 4.66 6 5 C6.33 5.66 6.66 6.32 7 7 C1.25 7.125 1.25 7.125 -1 6 C-1.12375 7.0725 -1.2475 8.145 -1.375 9.25 C-2.19533683 14.17202095 -3.85235202 17.16808072 -7 21 C-7.33 21 -7.66 21 -8 21 C-8.33 21.66 -8.66 22.32 -9 23 C-8.67 23.33 -8.34 23.66 -8 24 C-8.33 24.66 -8.66 25.32 -9 26 C-9.99 26 -10.98 26 -12 26 C-12.33 27.65 -12.66 29.3 -13 31 C-14.11375 30.9071875 -14.11375 30.9071875 -15.25 30.8125 C-18.49319223 31.03362674 -19.48507049 32.07188738 -22 34 C-22.99 33.67 -23.98 33.34 -25 33 C-24.52691406 32.69449219 -24.05382812 32.38898438 -23.56640625 32.07421875 C-11.85596118 23.97049946 -5.79948065 12.59451248 0 0 Z " fill="#64AEA2" transform="translate(560,1401)"/>
<path d="M0 0 C0.33 0.66 0.66 1.32 1 2 C0.13671875 4.37890625 0.13671875 4.37890625 -1.3125 7.5625 C-3.8395973 13.2232586 -6.18041422 18.93758092 -8.4440918 24.70874023 C-12.38827001 34.75233876 -16.53040728 44.6780052 -21 54.5 C-21.46881592 55.53882324 -21.93763184 56.57764648 -22.4206543 57.64794922 C-22.85933838 58.59943848 -23.29802246 59.55092773 -23.75 60.53125 C-24.13671875 61.37236328 -24.5234375 62.21347656 -24.921875 63.08007812 C-26 65 -26 65 -28 66 C-26.85814266 61.52040582 -25.56984833 57.85477249 -23 54 C-23.66 53.67 -24.32 53.34 -25 53 C-24.01 53 -23.02 53 -22 53 C-21.67 50.69 -21.34 48.38 -21 46 C-20.34 46 -19.68 46 -19 46 C-18.505 43.03 -18.505 43.03 -18 40 C-17.34 40 -16.68 40 -16 40 C-15.85304688 39.46375 -15.70609375 38.9275 -15.5546875 38.375 C-6.40552995 6.40552995 -6.40552995 6.40552995 0 0 Z " fill="#4EE989" transform="translate(622,1181)"/>
<path d="M0 0 C1.36144006 4.08432017 -0.22102858 6.35281515 -1.94921875 10.05078125 C-2.60546965 11.50044527 -3.26087422 12.95049265 -3.91552734 14.40087891 C-4.25968689 15.15645081 -4.60384644 15.91202271 -4.95843506 16.69049072 C-6.65513063 20.45265091 -8.27369738 24.24765515 -9.89453125 28.04296875 C-10.54614058 29.56318678 -11.19783352 31.08336898 -11.84960938 32.60351562 C-12.1721167 33.35673096 -12.49462402 34.10994629 -12.8269043 34.88598633 C-13.82835069 37.22451374 -14.83111794 39.56247189 -15.83398438 41.90039062 C-16.47924424 43.40621676 -17.12442941 44.91207491 -17.76953125 46.41796875 C-18.06535599 47.10755173 -18.36118073 47.7971347 -18.66596985 48.50761414 C-20.15526001 51.98826219 -21.61247064 55.47748359 -23 59 C-23.99 58.67 -24.98 58.34 -26 58 C-25.71125 57.45730469 -25.4225 56.91460938 -25.125 56.35546875 C-24.568125 55.28232422 -24.568125 55.28232422 -24 54.1875 C-23.62875 53.47980469 -23.2575 52.77210937 -22.875 52.04296875 C-21.80314642 49.91079271 -21.80314642 49.91079271 -22 47 C-21.01 46.505 -21.01 46.505 -20 46 C-18.87293294 43.88984046 -18.87293294 43.88984046 -17.875 41.4375 C-17.52179687 40.61121094 -17.16859375 39.78492188 -16.8046875 38.93359375 C-16.53914062 38.29550781 -16.27359375 37.65742187 -16 37 C-16.66 36.67 -17.32 36.34 -18 36 C-17.01 35.34 -16.02 34.68 -15 34 C-14.40929986 32.05396726 -14.40929986 32.05396726 -14 30 C-13.34 29.01 -12.68 28.02 -12 27 C-11.1795978 25.11642352 -10.39138292 23.21869447 -9.625 21.3125 C-8.13501919 17.65807961 -6.59787826 14.11169 -4.75 10.625 C-3.09307035 7.45032279 -2.51992143 4.55279642 -2 1 C-1.34 0.67 -0.68 0.34 0 0 Z " fill="#5DD589" transform="translate(647,1122)"/>
<path d="M0 0 C0 0.33 0 0.66 0 1 C-31.98301368 4.27419307 -63.8636757 6.92146424 -96 8 C-93.20294627 5.20294627 -90.50494734 5.61751059 -86.75 5.5078125 C-85.19579087 5.44408886 -83.64159213 5.38011169 -82.08740234 5.31591797 C-80.8456424 5.26972321 -80.8456424 5.26972321 -79.57879639 5.22259521 C-62.01311377 4.55781742 -44.58068773 3.16146269 -27.1015625 1.32080078 C-18.01648617 0.37841297 -9.14619862 -0.27878456 0 0 Z " fill="#5DE651" transform="translate(496,801)"/>
<path d="M0 0 C2.97 0.495 2.97 0.495 6 1 C5.44394726 6.93122918 1.85847122 11.59087064 -1.6875 16.1875 C-3.15538725 18.0320689 -3.15538725 18.0320689 -3.9375 20.6875 C-5 23 -5 23 -7.125 23.8125 C-7.74375 23.874375 -8.3625 23.93625 -9 24 C-8.814375 22.88625 -8.62875 21.7725 -8.4375 20.625 C-7.68319343 17.17431139 -7.68319343 17.17431139 -9 15 C-8.375 12.9375 -8.375 12.9375 -7 11 C-4.375 10.25 -4.375 10.25 -2 10 C-1.855625 8.72125 -1.71125 7.4425 -1.5625 6.125 C-1.29357254 3.74307106 -1.07773654 2.15547309 0 0 Z M1 3 C0.67 3.66 0.34 4.32 0 5 C0.66 5 1.32 5 2 5 C1.67 4.34 1.34 3.68 1 3 Z M0 7 C1 9 1 9 1 9 Z M-2 11 C-2.66 11.66 -3.32 12.32 -4 13 C-3.67 13.99 -3.34 14.98 -3 16 C-2.34 14.35 -1.68 12.7 -1 11 C-1.33 11 -1.66 11 -2 11 Z M-7 14 C-6 16 -6 16 -6 16 Z " fill="#8A92B6" transform="translate(545,1343)"/>
<path d="M0 0 C0.66 0 1.32 0 2 0 C2 12 2 12 1 14 C0.360625 14.103125 -0.27875 14.20625 -0.9375 14.3125 C-1.618125 14.539375 -2.29875 14.76625 -3 15 C-4.29660434 17.49034386 -4.29660434 17.49034386 -5 20 C-3.68 20.33 -2.36 20.66 -1 21 C-1 21.33 -1 21.66 -1 22 C-2.65 22 -4.3 22 -6 22 C-7.28663574 23.5582046 -7.28663574 23.5582046 -8 26 C-7.57598348 28.7773082 -6.81108065 31.29639783 -6 34 C-7.98 33.34 -9.96 32.68 -12 32 C-11.43343202 25.88106577 -8.89348871 20.67636193 -6.4375 15.125 C-6.01275391 14.15046875 -5.58800781 13.1759375 -5.15039062 12.171875 C-4.10624496 9.77855235 -3.05597786 7.38811986 -2 5 C-1.34 5 -0.68 5 0 5 C0 3.35 0 1.7 0 0 Z " fill="#7B9CB1" transform="translate(574,1369)"/>
<path d="M0 0 C0.99 0.33 1.98 0.66 3 1 C1.625 3.5 1.625 3.5 0 6 C-0.66 6 -1.32 6 -2 6 C-2.20625 6.66 -2.4125 7.32 -2.625 8 C-4.51152871 12.11606263 -7.20567979 15.4587703 -10 19 C-12.18565143 16.81434857 -13.54085754 14.71931095 -15 12 C-15 11.01 -15 10.02 -15 9 C-14.34 9 -13.68 9 -13 9 C-12.67 9.66 -12.34 10.32 -12 11 C-9.95163118 10.43637698 -9.95163118 10.43637698 -8 9 C-6.8359809 4.9134809 -6.8359809 4.9134809 -8 1 C-6.00045254 0.95745644 -3.99958364 0.95919217 -2 1 C-1.67 1.33 -1.34 1.66 -1 2 C-0.67 1.34 -0.34 0.68 0 0 Z " fill="#6E92A1" transform="translate(536,1367)"/>
<path d="M0 0 C1.24330078 0.01353516 1.24330078 0.01353516 2.51171875 0.02734375 C3.10597656 0.03894531 3.70023437 0.05054688 4.3125 0.0625 C4.3125 0.3925 4.3125 0.7225 4.3125 1.0625 C-12.12166603 2.92121461 -28.51115122 4.40073553 -45.01953125 5.35839844 C-56.92815601 6.05287286 -68.80670441 6.99829279 -80.6875 8.0625 C-77.95425707 5.32925707 -76.12207865 5.6117085 -72.29296875 5.28125 C-71.31595253 5.19367935 -71.31595253 5.19367935 -70.31919861 5.1043396 C-68.17181555 4.91460818 -66.0235647 4.73830297 -63.875 4.5625 C-62.3858612 4.43426349 -60.89676644 4.30551469 -59.40771484 4.17626953 C-47.26371372 3.1364327 -35.10811844 2.27968817 -22.9453125 1.4921875 C-18.8635885 1.22532841 -14.79465558 0.89931643 -10.72265625 0.51171875 C-7.13478705 0.17392954 -3.60739233 -0.05228105 0 0 Z " fill="#5DE651" transform="translate(395.6875,807.9375)"/>
<path d="M0 0 C4.24446559 1.50851868 5.52051404 4.11688114 7.6875 7.9375 C11.54482575 14.49976295 16.0329422 20.22509544 21 26 C22.8781344 28.20567672 24.7514189 30.41545539 26.625 32.625 C27.32036865 33.44230591 27.32036865 33.44230591 28.02978516 34.27612305 C31.82209924 38.74770791 35.46061045 43.32510664 39 48 C38.505 48.99 38.505 48.99 38 50 C33.07207758 44.64744934 28.32525276 39.25457755 23.93359375 33.453125 C22.06318473 31.08016163 20.09520601 28.81621455 18.09863281 26.54931641 C11.03304391 18.47889807 4.80925604 9.61851209 0 0 Z " fill="#76E9AE" transform="translate(952,1367)"/>
<path d="M0 0 C1 3 1 3 -0.1171875 5.65234375 C-0.69726562 6.73644531 -1.27734375 7.82054687 -1.875 8.9375 C-6.28647893 17.38093926 -10.1241517 26.05727934 -13.99267578 34.75927734 C-15.67567668 38.50299577 -17.4400703 42.2090347 -19.22265625 45.90625 C-20.45934038 49.23721831 -20.10378521 51.68864436 -19 55 C-20.65 55 -22.3 55 -24 55 C-24.66 56.32 -25.32 57.64 -26 59 C-25.39999859 55.5298254 -24.5038283 52.51631182 -23.1015625 49.2890625 C-22.70984863 48.38486572 -22.31813477 47.48066895 -21.91455078 46.54907227 C-21.48899902 45.58412842 -21.06344727 44.61918457 -20.625 43.625 C-20.18526855 42.62073975 -19.74553711 41.61647949 -19.29248047 40.58178711 C-13.24263838 26.87641218 -6.73056302 13.38286368 0 0 Z " fill="#43E89D" transform="translate(635,1228)"/>
<path d="M0 0 C3.84854283 3.61013752 6.87961447 7.39507352 9.6875 11.875 C10.1103125 12.54829346 10.533125 13.22158691 10.96875 13.9152832 C16.71020466 23.41133588 20.82838653 33.74340679 25 44 C25.39251953 44.86536377 25.78503906 45.73072754 26.18945312 46.62231445 C27 49 27 49 26 52 C24.10587173 48.40115628 22.48729642 44.78688549 21 41 C19.51525701 37.22272282 17.88851469 33.59717084 16 30 C15.67 29.34 15.34 28.68 15 28 C15.33 27.34 15.66 26.68 16 26 C15.34 25.67 14.68 25.34 14 25 C13.1311051 23.42566567 12.32736296 21.81491869 11.5625 20.1875 C10.30287271 17.5142471 9.12252895 15.16231482 7.33984375 12.80078125 C6 11 6 11 6 9 C5.34 9 4.68 9 4 9 C2.96210419 7.35666496 1.96432076 5.68756133 1 4 C0.34 3.34 -0.32 2.68 -1 2 C-0.67 1.34 -0.34 0.68 0 0 Z " fill="#45DF81" transform="translate(615,828)"/>
<path d="M0 0 C1.74876525 -0.01360403 3.49749151 -0.03404307 5.24609375 -0.06152344 C7.70725526 -0.09733586 10.16702598 -0.1058404 12.62841797 -0.10644531 C13.71061111 -0.12788101 13.71061111 -0.12788101 14.81466675 -0.14974976 C20.2790966 -0.10110498 23.3214346 1.42916888 27.76123047 4.35449219 C27.10123047 4.68449219 26.44123047 5.01449219 25.76123047 5.35449219 C24.7298999 4.88688477 23.69856934 4.41927734 22.63598633 3.9375 C18.69885519 2.15284161 15.04294328 1.95103606 10.76513672 2.02636719 C10.01393051 2.02824036 9.2627243 2.03011353 8.48875427 2.03204346 C6.90285789 2.03873349 5.31697715 2.05258692 3.73120117 2.07324219 C1.36148862 2.10400207 -1.00755005 2.11418814 -3.37744141 2.12011719 C-12.12863244 2.16530062 -20.81064 2.53526904 -29.53979492 3.13623047 C-34.94329068 3.45506917 -40.3279082 3.46407465 -45.73876953 3.41699219 C-46.76357422 3.41248047 -47.78837891 3.40796875 -48.84423828 3.40332031 C-51.3091511 3.39180203 -53.77392313 3.37555094 -56.23876953 3.35449219 C-56.23876953 3.02449219 -56.23876953 2.69449219 -56.23876953 2.35449219 C-37.50651436 1.1092079 -18.77686146 0.13037105 0 0 Z " fill="#45DF81" transform="translate(550.23876953125,797.6455078125)"/>
<path d="M0 0 C1.05719873 2.70328799 1.04669555 3.86155424 0.10375977 6.65722656 C-0.59535522 8.13400879 -0.59535522 8.13400879 -1.30859375 9.640625 C-1.80810547 10.71054688 -2.30761719 11.78046875 -2.82226562 12.8828125 C-3.35529297 13.99398438 -3.88832031 15.10515625 -4.4375 16.25 C-5.23124023 17.93996094 -5.23124023 17.93996094 -6.04101562 19.6640625 C-7.35031916 22.44780695 -8.67027484 25.22596732 -10 28 C-10.66 28 -11.32 28 -12 28 C-12.12375 28.94875 -12.2475 29.8975 -12.375 30.875 C-13 34 -13 34 -15 36 C-15 34.02 -15 32.04 -15 30 C-15.66 30 -16.32 30 -17 30 C-17 29.34 -17 28.68 -17 28 C-16.34 28 -15.68 28 -15 28 C-15.66 25.03 -16.32 22.06 -17 19 C-13.9890638 21.0072908 -13.36983503 21.83884224 -12 25 C-12.04125 24.05125 -12.0825 23.1025 -12.125 22.125 C-12 19 -12 19 -10 17 C-9.34 17.33 -8.68 17.66 -8 18 C-7.608125 16.88625 -7.21625 15.7725 -6.8125 14.625 C-4.92371079 9.55795971 -2.48618452 4.79548635 0 0 Z M-14 28 C-13 30 -13 30 -13 30 Z " fill="#53ABAB" transform="translate(593,1247)"/>
<path d="M0 0 C0.66 0 1.32 0 2 0 C2.875 2 2.875 2 3 5 C1.67557382 7.12441514 0.15425009 8.99212664 -1.4296875 10.9296875 C-3.59882323 13.78949332 -4.74434603 16.6515894 -6 20 C-6.66 20 -7.32 20 -8 20 C-8.12375 21.2375 -8.2475 22.475 -8.375 23.75 C-8.75746305 26.8762197 -9.30549523 29.28879237 -11 32 C-11.66 30.68 -12.32 29.36 -13 28 C-12.34 28 -11.68 28 -11 28 C-10.95101563 27.30132813 -10.90203125 26.60265625 -10.8515625 25.8828125 C-10.73941406 24.51769531 -10.73941406 24.51769531 -10.625 23.125 C-10.52058594 21.76761719 -10.52058594 21.76761719 -10.4140625 20.3828125 C-10 18 -10 18 -8 16 C-8 15.01 -8 14.02 -8 13 C-7.67 12.34 -7.34 11.68 -7 11 C-6.34 11 -5.68 11 -5 11 C-4.67 10.34 -4.34 9.68 -4 9 C-3.484375 8.360625 -2.96875 7.72125 -2.4375 7.0625 C-0.71410367 5.00880478 -0.71410367 5.00880478 -1 2 C-0.67 1.34 -0.34 0.68 0 0 Z " fill="#7AB0A1" transform="translate(522,1383)"/>
<path d="M0 0 C0.33 0.99 0.66 1.98 1 3 C0.01 3.495 0.01 3.495 -1 4 C-1 4.66 -1 5.32 -1 6 C1.31 6 3.62 6 6 6 C6 6.66 6 7.32 6 8 C6.99 8 7.98 8 9 8 C10.75 10.375 10.75 10.375 12 13 C11.67 13.66 11.34 14.32 11 15 C-5.13608458 7.21896317 -5.13608458 7.21896317 -7 2 C-4.69 1.34 -2.38 0.68 0 0 Z " fill="#F9A041" transform="translate(476,244)"/>
<path d="M0 0 C0.66 0 1.32 0 2 0 C5.40477088 11.86088217 7.72091168 23.71201508 9.3125 35.9375 C9.3993103 36.59824524 9.48612061 37.25899048 9.57556152 37.9397583 C11.10936523 49.73641631 11.10936523 49.73641631 11 55 C8.70095555 51.55143332 8.46056224 49.40668681 7.9296875 45.3203125 C7.84373322 44.67053436 7.75777893 44.02075623 7.66921997 43.35128784 C7.48915487 41.97832494 7.31287989 40.60486036 7.14013672 39.23095703 C6.87669295 37.13844697 6.60150338 35.04774754 6.32421875 32.95703125 C4.88161811 21.86285223 4.88161811 21.86285223 5 17 C4.34 16.67 3.68 16.34 3 16 C2.4375 13.56640625 2.4375 13.56640625 2 10.5625 C1.50894049 6.29735299 1.50894049 6.29735299 -1 3 C-0.67 2.01 -0.34 1.02 0 0 Z " fill="#45DF81" transform="translate(641,880)"/>
<path d="M0 0 C0 0.33 0 0.66 0 1 C-8.68309668 1.93760201 -17.36690564 2.86821337 -26.05170918 3.78987217 C-30.08424952 4.21804092 -34.11650134 4.64862667 -38.14819336 5.0847168 C-42.03792996 5.50536268 -45.92829261 5.91968467 -49.81917381 6.3296032 C-51.304589 6.48722539 -52.78976307 6.64713705 -54.274683 6.8093586 C-56.3522107 7.0359273 -58.43044144 7.25439061 -60.5090332 7.47094727 C-61.69261917 7.59752213 -62.87620514 7.72409698 -64.09565735 7.85450745 C-67 8 -67 8 -70 7 C-63.11791749 5.32148677 -56.36295375 4.3834896 -49.31640625 3.7109375 C-47.67308571 3.54871201 -47.67308571 3.54871201 -45.99656677 3.38320923 C-43.69157781 3.1570716 -41.38631823 2.93367708 -39.08081055 2.71289062 C-35.57585043 2.37628214 -32.07211233 2.02861303 -28.56835938 1.6796875 C-26.31777293 1.46027392 -24.06712375 1.2415026 -21.81640625 1.0234375 C-20.78068985 0.92034271 -19.74497345 0.81724792 -18.6778717 0.71102905 C-12.430314 0.1207931 -6.27465279 -0.12740028 0 0 Z " fill="#5DE651" transform="translate(315,815)"/>
<path d="M0 0 C6.14878843 2.1990961 12.05162264 4.86992278 17.875 7.8125 C18.51703369 8.11929688 19.15906738 8.42609375 19.82055664 8.7421875 C24.79514231 11.32387661 26.42579426 14.06993633 29 19 C32.01696409 20.84274976 32.01696409 20.84274976 35 22 C35.66 22.66 36.32 23.32 37 24 C36.505 25.485 36.505 25.485 36 27 C35.443125 26.38125 34.88625 25.7625 34.3125 25.125 C32.16304765 22.86378564 32.16304765 22.86378564 29.4375 22.125 C26.00287823 20.53978995 25.35834657 18.43161238 24 15 C24 14.34 24 13.68 24 13 C23.27079346 12.71463379 22.54158691 12.42926758 21.7902832 12.13525391 C19.2669534 11.10861259 16.81437536 10.00684541 14.35546875 8.8359375 C13.51435547 8.43632813 12.67324219 8.03671875 11.80664062 7.625 C10.94232422 7.2125 10.07800781 6.8 9.1875 6.375 C8.30384766 5.95476563 7.42019531 5.53453125 6.50976562 5.1015625 C4.33918982 4.06907239 2.16929448 3.0351788 0 2 C0 1.34 0 0.68 0 0 Z " fill="#53DC77" transform="translate(578,802)"/>
<path d="M0 0 C0.99 0.33 1.98 0.66 3 1 C3.44041451 6.37305699 3.44041451 6.37305699 3 9 C0.5 11 0.5 11 -2 12 C-0.68 12.33 0.64 12.66 2 13 C2.33 14.32 2.66 15.64 3 17 C0.03 17.33 -2.94 17.66 -6 18 C-5.41347648 13.51006131 -4.2356462 9.77456816 -2.4375 5.625 C-1.98246094 4.56539062 -1.52742187 3.50578125 -1.05859375 2.4140625 C-0.70925781 1.61742187 -0.35992188 0.82078125 0 0 Z M-3 14 C-3 14.66 -3 15.32 -3 16 C-2.34 15.67 -1.68 15.34 -1 15 C-1.66 14.67 -2.32 14.34 -3 14 Z " fill="#64A0B0" transform="translate(581,1351)"/>
<path d="M0 0 C-2.68157056 1.45847509 -4.96664594 2.318668 -7.9831543 2.76196289 C-8.75463303 2.87870865 -9.52611176 2.99545441 -10.32096863 3.11573792 C-11.14704117 3.23352097 -11.97311371 3.35130402 -12.82421875 3.47265625 C-13.68505569 3.60063095 -14.54589264 3.72860565 -15.43281555 3.86045837 C-18.18347631 4.26755287 -20.93544596 4.6649463 -23.6875 5.0625 C-25.52026998 5.33339179 -27.35295338 5.60487001 -29.18554688 5.87695312 C-30.96086012 6.13854648 -32.73624855 6.39963029 -34.51171875 6.66015625 C-35.73564583 6.83986717 -35.73564583 6.83986717 -36.98429871 7.02320862 C-42.31354587 7.79218468 -47.64578825 8.42954877 -53 9 C-52.67 8.34 -52.34 7.68 -52 7 C-50.17378235 6.4937439 -50.17378235 6.4937439 -47.7590332 6.13037109 C-46.40676384 5.92037979 -46.40676384 5.92037979 -45.0271759 5.70614624 C-44.04496567 5.56335236 -43.06275543 5.42055847 -42.05078125 5.2734375 C-41.04540817 5.12089508 -40.0400351 4.96835266 -39.00419617 4.81118774 C-36.87038044 4.4893219 -34.73589723 4.17185572 -32.60083008 3.85839844 C-29.34228858 3.37937905 -26.08613779 2.88620355 -22.83007812 2.390625 C-20.7579391 2.0798838 -18.68567704 1.76996167 -16.61328125 1.4609375 C-15.15514763 1.24067398 -15.15514763 1.24067398 -13.66755676 1.01596069 C-9.06969348 0.34583597 -4.66204228 -0.18217572 0 0 Z " fill="#5DE651" transform="translate(245,822)"/>
<path d="M0 0 C4.26992359 3.80346135 5.60707 8.80940837 6.29296875 14.37890625 C6.46745481 19.28944263 5.82011154 22.82205698 3 27 C2.01 27.33 1.02 27.66 0 28 C0.28875 27.443125 0.5775 26.88625 0.875 26.3125 C2.0413253 23.91505355 3.0339881 21.48403061 4 19 C3.34 18.67 2.68 18.34 2 18 C2.33 17.34 2.66 16.68 3 16 C2.01 15.67 1.02 15.34 0 15 C0.33 14.05125 0.66 13.1025 1 12.125 C2.10159191 9.22937548 2.10159191 9.22937548 2 7 C1.67 6.360625 1.34 5.72125 1 5.0625 C0 3 0 3 0 0 Z " fill="#5DBD8B" transform="translate(1027,1399)"/>
<path d="M0 0 C1.32 0 2.64 0 4 0 C4 2.64 4 5.28 4 8 C2.68 8 1.36 8 0 8 C0 8.66 0 9.32 0 10 C1.32 9.67 2.64 9.34 4 9 C4.99 11.97 5.98 14.94 7 18 C6.01 18.33 5.02 18.66 4 19 C2 17.6875 2 17.6875 0 16 C-0.99 15.34 -1.98 14.68 -3 14 C-1.68 13.67 -0.36 13.34 1 13 C1 12.34 1 11.68 1 11 C0.01 11.33 -0.98 11.66 -2 12 C-1.39816251 9.97954558 -0.72693904 7.97888961 0 6 C0.66 5.67 1.32 5.34 2 5 C2 4.34 2 3.68 2 3 C1.34 2.67 0.68 2.34 0 2 C0 1.34 0 0.68 0 0 Z M2 13 C2.33 14.32 2.66 15.64 3 17 C3.33 16.34 3.66 15.68 4 15 C3.34 14.34 2.68 13.68 2 13 Z " fill="#7BA196" transform="translate(507,1413)"/>
<path d="M0 0 C1.04005702 3.38018531 1.08004482 6.4780279 1 10 C0.01 10 -0.98 10 -2 10 C-1.67 8.35 -1.34 6.7 -1 5 C-1.66 4.67 -2.32 4.34 -3 4 C-2.01 2.68 -1.02 1.36 0 0 Z " fill="#7B53D1" transform="translate(591,1341)"/>
<path d="M0 0 C2.475 0.99 2.475 0.99 5 2 C4.67 2.99 4.34 3.98 4 5 C3.67 4.01 3.34 3.02 3 2 C1.68 2.33 0.36 2.66 -1 3 C-0.67 2.01 -0.34 1.02 0 0 Z " fill="#3A5AD7" transform="translate(569,1280)"/>
<path d="M0 0 C1.98 0.495 1.98 0.495 4 1 C4 1.66 4 2.32 4 3 C2.35 2.67 0.7 2.34 -1 2 C-0.67 1.34 -0.34 0.68 0 0 Z " fill="#DDDDDD" transform="translate(1467,75)"/>
<path d="M0 0 C0.66 0.99 1.32 1.98 2 3 C1.67 3.99 1.34 4.98 1 6 C0.01 5.67 -0.98 5.34 -2 5 C-1.34 3.35 -0.68 1.7 0 0 Z " fill="#8D64B9" transform="translate(574,1384)"/>
<path d="M0 0 C0.99 0.495 0.99 0.495 2 1 C2 1.99 2 2.98 2 4 C1.34 4 0.68 4 0 4 C0 2.68 0 1.36 0 0 Z " fill="#8665DA" transform="translate(549,1428)"/>
<path d="M0 0 C1.32 0.33 2.64 0.66 4 1 C2.02 1.99 2.02 1.99 0 3 C0 2.01 0 1.02 0 0 Z " fill="#3E9991" transform="translate(536,1352)"/>
<path d="M0 0 C0 0.99 0 1.98 0 3 C-0.99 2.67 -1.98 2.34 -3 2 C-2.01 1.34 -1.02 0.68 0 0 Z " fill="#7F65AA" transform="translate(556,1421)"/>
<path d="M0 0 C0.33 1.32 0.66 2.64 1 4 C0.34 3.67 -0.32 3.34 -1 3 C-0.67 2.01 -0.34 1.02 0 0 Z " fill="#9233FF" transform="translate(559,1414)"/>
<path d="M0 0 C0.66 0.33 1.32 0.66 2 1 C1.67 1.66 1.34 2.32 1 3 C0.34 2.67 -0.32 2.34 -1 2 C-0.67 1.34 -0.34 0.68 0 0 Z " fill="#9E14FF" transform="translate(558,1421)"/>
<path d="M0 0 C0 0.99 0 1.98 0 3 C-0.66 2.67 -1.32 2.34 -2 2 C-1.34 1.34 -0.68 0.68 0 0 Z " fill="#148299" transform="translate(506,1416)"/>
<path d="M0 0 C0.33 0.66 0.66 1.32 1 2 C0.34 2.66 -0.32 3.32 -1 4 C-0.67 2.68 -0.34 1.36 0 0 Z " fill="#6514FF" transform="translate(505,1413)"/>
<path d="M0 0 C0.33 1.32 0.66 2.64 1 4 C0.34 3.67 -0.32 3.34 -1 3 C-0.67 2.01 -0.34 1.02 0 0 Z " fill="#3355CC" transform="translate(559,1409)"/>
<path d="M0 0 C0.99 0.33 1.98 0.66 3 1 C2.34 1.66 1.68 2.32 1 3 C0.67 2.01 0.34 1.02 0 0 Z " fill="#8F59FF" transform="translate(597,1323)"/>
<path d="M0 0 C0.66 0 1.32 0 2 0 C1.67 0.99 1.34 1.98 1 3 C0.67 2.01 0.34 1.02 0 0 Z " fill="#8F85AE" transform="translate(552,1323)"/>
<path d="M0 0 C0.66 0 1.32 0 2 0 C2.33 0.99 2.66 1.98 3 3 C2.34 3 1.68 3 1 3 C0.67 2.01 0.34 1.02 0 0 Z " fill="#7B85CC" transform="translate(569,1283)"/>
<path d="M0 0 C0.66 0 1.32 0 2 0 C2 0.66 2 1.32 2 2 C1.34 2 0.68 2 0 2 C0 1.34 0 0.68 0 0 Z " fill="#7F7FFF" transform="translate(571,1384)"/>
<path d="M0 0 C0.66 0.33 1.32 0.66 2 1 C1.01 1 0.02 1 -1 1 C-0.67 0.67 -0.34 0.34 0 0 Z " fill="#5050BF" transform="translate(585,1350)"/>
<path d="M0 0 C0 3 0 3 0 3 Z " fill="#525FFF" transform="translate(555,1320)"/>
<path d="M0 0 C1.485 0.99 1.485 0.99 3 2 C2.01 2 1.02 2 0 2 C0 1.34 0 0.68 0 0 Z " fill="#7F007F" transform="translate(632,1144)"/>
<path d="M0 0 C0.66 0 1.32 0 2 0 C1.67 0.66 1.34 1.32 1 2 C0.67 1.34 0.34 0.68 0 0 Z " fill="#552AFF" transform="translate(556,1419)"/>
<path d="" fill="#5476FF" transform="translate(0,0)"/>
<path d="M0 0 C0.33 0.66 0.66 1.32 1 2 C0.34 1.67 -0.32 1.34 -1 1 C-0.67 0.67 -0.34 0.34 0 0 Z " fill="#A921CE" transform="translate(567,1404)"/>
<path d="M0 0 C0.66 0 1.32 0 2 0 C1.67 0.66 1.34 1.32 1 2 C0.67 1.34 0.34 0.68 0 0 Z " fill="#0000FF" transform="translate(512,1392)"/>
<path d="M0 0 C0.99 0.495 0.99 0.495 2 1 C1.01 1.495 1.01 1.495 0 2 C0 1.34 0 0.68 0 0 Z " fill="#5555FF" transform="translate(520,1382)"/>
<path d="M0 0 C0.66 0.66 1.32 1.32 2 2 C1.34 2 0.68 2 0 2 C0 1.34 0 0.68 0 0 Z " fill="#5513AA" transform="translate(520,1379)"/>
<path d="M0 0 C0.99 0.495 0.99 0.495 2 1 C1.01 1.495 1.01 1.495 0 2 C0 1.34 0 0.68 0 0 Z " fill="#4355AA" transform="translate(587,1348)"/>
<path d="M0 0 C0.33 0.66 0.66 1.32 1 2 C0.34 1.67 -0.32 1.34 -1 1 C-0.67 0.67 -0.34 0.34 0 0 Z " fill="#00ACAA" transform="translate(579,1265)"/>
<path d="M0 0 C0.66 0 1.32 0 2 0 C1.67 0.66 1.34 1.32 1 2 C0.67 1.34 0.34 0.68 0 0 Z " fill="#5536FF" transform="translate(589,1248)"/>
<path d="" fill="#7F007F" transform="translate(0,0)"/>
<path d="" fill="#FE32FF" transform="translate(0,0)"/>
<path d="" fill="#7F7F7F" transform="translate(0,0)"/>
<path d="M0 0 C2 1 2 1 2 1 Z " fill="#7F3FFF" transform="translate(509,1408)"/>
<path d="M0 0 C2 1 2 1 2 1 Z " fill="#007FFF" transform="translate(505,1408)"/>
<path d="M0 0 C2 1 2 1 2 1 Z " fill="#247F7F" transform="translate(582,1362)"/>
<path d="M0 0 C2 1 2 1 2 1 Z " fill="#7F007F" transform="translate(587,1351)"/>
<path d="" fill="#7F7FFF" transform="translate(0,0)"/>
<path d="" fill="#0000FF" transform="translate(0,0)"/>
<path d="" fill="#7F7F7F" transform="translate(0,0)"/>
<path d="" fill="#7F3FFF" transform="translate(0,0)"/>
<path d="" fill="#007F7F" transform="translate(0,0)"/>
<path d="M0 0 C2 1 2 1 2 1 Z " fill="#0000FF" transform="translate(611,1197)"/>
<path d="" fill="#7F007F" transform="translate(0,0)"/>
<path d="" fill="#CC00CC" transform="translate(0,0)"/>
<path d="" fill="#7F7F7F" transform="translate(0,0)"/>
<path d="" fill="#7F21FF" transform="translate(0,0)"/>
<path d="" fill="#4C00FF" transform="translate(0,0)"/>
<path d="" fill="#0052FF" transform="translate(0,0)"/>
<path d="M0 0 C2 1 2 1 2 1 Z " fill="#4C00FF" transform="translate(641,906)"/>
<path d="" fill="#007FFF" transform="translate(0,0)"/>
<path d="" fill="#7F00FF" transform="translate(0,0)"/>
<path d="" fill="#7F00FF" transform="translate(0,0)"/>
<path d="M0 0 C2 1 2 1 2 1 Z " fill="#007FFF" transform="translate(600,817)"/>
<path d="" fill="#00ADFF" transform="translate(0,0)"/>
<path d="" fill="#0000FF" transform="translate(0,0)"/>
<path d="" fill="#FF00FF" transform="translate(0,0)"/>
<path d="" fill="#00FFFF" transform="translate(0,0)"/>
<path d="" fill="#FF00FF" transform="translate(0,0)"/>
<path d="" fill="#7338FF" transform="translate(0,0)"/>
<path d="" fill="#0000FF" transform="translate(0,0)"/>
<path d="" fill="#FF00FF" transform="translate(0,0)"/>
<path d="" fill="#0000FF" transform="translate(0,0)"/>
<path d="" fill="#5830FF" transform="translate(0,0)"/>
<path d="" fill="#FF91FF" transform="translate(0,0)"/>
<path d="" fill="#FF0000" transform="translate(0,0)"/>
<path d="" fill="#FD64FF" transform="translate(0,0)"/>
<path d="" fill="#00ADFF" transform="translate(0,0)"/>
<path d="" fill="#FF00FF" transform="translate(0,0)"/>
<path d="" fill="#00FFFF" transform="translate(0,0)"/>
<path d="" fill="#003BFF" transform="translate(0,0)"/>
<path d="" fill="#0000FF" transform="translate(0,0)"/>
<path d="" fill="#00FF00" transform="translate(0,0)"/>
<path d="" fill="#FF00FF" transform="translate(0,0)"/>
<path d="" fill="#CDD0FF" transform="translate(0,0)"/>
<path d="" fill="#00FFFF" transform="translate(0,0)"/>
<path d="" fill="#FF00FF" transform="translate(0,0)"/>
<path d="" fill="#00CEFF" transform="translate(0,0)"/>
<path d="" fill="#3B00FF" transform="translate(0,0)"/>
<path d="" fill="#FF00FF" transform="translate(0,0)"/>
<path d="" fill="#00ADFF" transform="translate(0,0)"/>
<path d="" fill="#FFFF00" transform="translate(0,0)"/>
<path d="" fill="#FFFF00" transform="translate(0,0)"/>
<path d="" fill="#FF7FFF" transform="translate(0,0)"/>
<path d="" fill="#8600FF" transform="translate(0,0)"/>
<path d="" fill="#FF00FF" transform="translate(0,0)"/>
<path d="" fill="#FF00FF" transform="translate(0,0)"/>
<path d="" fill="#FF7FFF" transform="translate(0,0)"/>
<path d="" fill="#0000FF" transform="translate(0,0)"/>
<path d="" fill="#C447FF" transform="translate(0,0)"/>
<path d="" fill="#FF7FFF" transform="translate(0,0)"/>
<path d="" fill="#3B00FF" transform="translate(0,0)"/>
<path d="" fill="#0000FF" transform="translate(0,0)"/>
<path d="" fill="#8600FF" transform="translate(0,0)"/>
<path d="" fill="#FF00FF" transform="translate(0,0)"/>
<path d="" fill="#00CEFF" transform="translate(0,0)"/>
<path d="" fill="#FF7FFF" transform="translate(0,0)"/>
<path d="" fill="#0000FF" transform="translate(0,0)"/>
<path d="" fill="#FF00FF" transform="translate(0,0)"/>
<path d="" fill="#0000FF" transform="translate(0,0)"/>
<path d="" fill="#003AFF" transform="translate(0,0)"/>
<path d="" fill="#00FFFF" transform="translate(0,0)"/>
<path d="" fill="#FF00FF" transform="translate(0,0)"/>
<path d="" fill="#4900FF" transform="translate(0,0)"/>
<path d="" fill="#00FF00" transform="translate(0,0)"/>
<path d="" fill="#FF0000" transform="translate(0,0)"/>
<path d="" fill="#0000FF" transform="translate(0,0)"/>
<path d="" fill="#00FFFF" transform="translate(0,0)"/>
<path d="" fill="#FF00FF" transform="translate(0,0)"/>
<path d="" fill="#0000FF" transform="translate(0,0)"/>
<path d="" fill="#FF00FF" transform="translate(0,0)"/>
<path d="" fill="#0000FF" transform="translate(0,0)"/>
<path d="" fill="#B600FF" transform="translate(0,0)"/>
<path d="" fill="#FF00FF" transform="translate(0,0)"/>
<path d="" fill="#FF00FF" transform="translate(0,0)"/>
<path d="" fill="#9900FF" transform="translate(0,0)"/>
<path d="" fill="#FF00FF" transform="translate(0,0)"/>
<path d="" fill="#0000FF" transform="translate(0,0)"/>
<path d="" fill="#0000FF" transform="translate(0,0)"/>
<path d="" fill="#0000FF" transform="translate(0,0)"/>
<path d="" fill="#FF00FF" transform="translate(0,0)"/>
<path d="" fill="#FF9900" transform="translate(0,0)"/>
<path d="" fill="#FF0000" transform="translate(0,0)"/>
<path d="" fill="#9900FF" transform="translate(0,0)"/>
<path d="" fill="#0043FF" transform="translate(0,0)"/>
<path d="" fill="#9900FF" transform="translate(0,0)"/>
<path d="" fill="#0000FF" transform="translate(0,0)"/>
<path d="" fill="#0000FF" transform="translate(0,0)"/>
<path d="" fill="#0000FF" transform="translate(0,0)"/>
<path d="" fill="#FF00FF" transform="translate(0,0)"/>
<path d="" fill="#0000FF" transform="translate(0,0)"/>
<path d="" fill="#00A4FF" transform="translate(0,0)"/>
<path d="" fill="#FF00FF" transform="translate(0,0)"/>
<path d="" fill="#F200FF" transform="translate(0,0)"/>
<path d="" fill="#FF00FF" transform="translate(0,0)"/>
<path d="" fill="#0000FF" transform="translate(0,0)"/>
<path d="" fill="#FF00FF" transform="translate(0,0)"/>
<path d="" fill="#FF0000" transform="translate(0,0)"/>
<path d="" fill="#0000FF" transform="translate(0,0)"/>
<path d="" fill="#00FFFF" transform="translate(0,0)"/>
<path d="" fill="#0000FF" transform="translate(0,0)"/>
<path d="" fill="#FF00FF" transform="translate(0,0)"/>
<path d="" fill="#9900FF" transform="translate(0,0)"/>
<path d="" fill="#0000FF" transform="translate(0,0)"/>
<path d="" fill="#FF00FF" transform="translate(0,0)"/>
<path d="" fill="#0000FF" transform="translate(0,0)"/>
<path d="" fill="#FF00FF" transform="translate(0,0)"/>
<path d="" fill="#0000FF" transform="translate(0,0)"/>
<path d="" fill="#0000FF" transform="translate(0,0)"/>
<path d="" fill="#FF00FF" transform="translate(0,0)"/>
<path d="" fill="#FF00FF" transform="translate(0,0)"/>
<path d="" fill="#0000FF" transform="translate(0,0)"/>
<path d="" fill="#0000FF" transform="translate(0,0)"/>
<path d="" fill="#FF00FF" transform="translate(0,0)"/>
<path d="" fill="#FF0000" transform="translate(0,0)"/>
<path d="" fill="#00A4FF" transform="translate(0,0)"/>
<path d="" fill="#FF00FF" transform="translate(0,0)"/>
<path d="" fill="#FF00FF" transform="translate(0,0)"/>
<path d="" fill="#00A4FF" transform="translate(0,0)"/>
<path d="" fill="#0000FF" transform="translate(0,0)"/>
<path d="" fill="#FF00FF" transform="translate(0,0)"/>
<path d="" fill="#FF00FF" transform="translate(0,0)"/>
<path d="" fill="#9900FF" transform="translate(0,0)"/>
<path d="" fill="#9900FF" transform="translate(0,0)"/>
<path d="" fill="#FF00FF" transform="translate(0,0)"/>
<path d="" fill="#FF00FF" transform="translate(0,0)"/>
<path d="" fill="#00A4FF" transform="translate(0,0)"/>
<path d="" fill="#FF00FF" transform="translate(0,0)"/>
<path d="" fill="#FF00FF" transform="translate(0,0)"/>
<path d="" fill="#0000FF" transform="translate(0,0)"/>
<path d="" fill="#00A4FF" transform="translate(0,0)"/>
<path d="" fill="#0000FF" transform="translate(0,0)"/>
<path d="" fill="#9900FF" transform="translate(0,0)"/>
<path d="" fill="#0043FF" transform="translate(0,0)"/>
<path d="" fill="#00FF00" transform="translate(0,0)"/>
<path d="" fill="#00FFA6" transform="translate(0,0)"/>
<path d="" fill="#FF00FF" transform="translate(0,0)"/>
<path d="" fill="#BDBDBD" transform="translate(0,0)"/>
</svg>
